<?xml version="1.0" encoding="UTF-8"?>
<svg width="100pt" height="100pt" version="1.1" viewBox="0 0 100 100" xmlns="http://www.w3.org/2000/svg">
 <g fill="#fff" fill-rule="evenodd">
  <path d="m50 22.289c-15.285 0-27.711 12.418-27.711 27.711 0 15.285 12.426 27.711 27.711 27.711 15.293 0 27.711-12.426 27.711-27.711 0-15.289-12.418-27.711-27.711-27.711zm0 2.5195c13.93 0 25.191 11.262 25.191 25.191 0 13.922-11.262 25.191-25.191 25.191-13.922 0-25.191-11.266-25.191-25.191 0-13.93 11.266-25.191 25.191-25.191z"/>
  <path d="m40.406 39.289c-0.49219 0.046876-0.91016 0.375-1.0703 0.83984-0.16016 0.46484-0.035157 0.98438 0.32031 1.3242l8.543 8.5625-8.543 8.543v-0.003906c-0.49219 0.49219-0.49219 1.2969 0 1.7891 0.49609 0.49609 1.2969 0.49609 1.793 0l8.5625-8.5625 8.543 8.5625h-0.003907c0.49609 0.49609 1.2969 0.49609 1.7891 0 0.49609-0.49219 0.49609-1.2969 0-1.7891l-8.5625-8.543 8.5625-8.5625v0.003906c0.37891-0.36328 0.48828-0.92188 0.28516-1.4023-0.20703-0.48047-0.6875-0.78516-1.207-0.76172-0.32812 0.007813-0.63672 0.14063-0.86719 0.37109l-8.543 8.543-8.5625-8.543h0.003907c-0.23828-0.24219-0.56641-0.375-0.90625-0.37109-0.046875-0.003906-0.089844-0.003906-0.13672 0z"/>
 </g>
</svg>
