<?xml version="1.0" encoding="UTF-8"?>
<svg width="100pt" height="100pt" version="1.1" viewBox="0 0 100 100" xmlns="http://www.w3.org/2000/svg">
 <path d="m77.461 49.633c-0.015626-0.10156-0.023438-0.19531-0.058594-0.29297-0.03125-0.089844-0.085938-0.16406-0.13281-0.24609-0.039062-0.066406-0.058593-0.14453-0.10938-0.20312-0.015625-0.019531-0.039062-0.027344-0.058594-0.046875-0.015624-0.019531-0.023437-0.042969-0.039062-0.058594-2.5898-2.5898-5.0273-4.9844-7.2734-7.1875-4.2344-4.1602-7.8906-7.75-10.504-10.641-0.011718-0.011719-0.023437-0.015625-0.03125-0.023437-0.078125-0.082032-0.17578-0.13672-0.27344-0.19922-0.066407-0.042969-0.12109-0.097656-0.19141-0.12891-0.082031-0.035157-0.17187-0.042969-0.26172-0.0625-0.10156-0.023438-0.19531-0.058594-0.30078-0.0625-0.015624 0-0.027343-0.007813-0.039062-0.007813-0.082031 0-0.15234 0.035156-0.23047 0.046875-0.10156 0.015625-0.19922 0.023438-0.29688 0.058594-0.10156 0.039063-0.1875 0.10547-0.28125 0.16406-0.0625 0.039062-0.12891 0.058593-0.1875 0.10937-0.011718 0.011719-0.015625 0.023438-0.023437 0.03125-0.078125 0.074219-0.12891 0.16797-0.1875 0.25391-0.046875 0.070312-0.10938 0.13281-0.14453 0.21094-0.03125 0.070313-0.035157 0.14844-0.054688 0.22266-0.03125 0.11328-0.066406 0.21875-0.066406 0.33594 0 0.011719-0.007813 0.023438-0.007813 0.035156 0 4.4609 0.019531 5.8984 0.03125 6.6211 0.003907 0.34766 0.007813 0.52344 0.003907 0.80078-11 0.007813-17.512 0.16797-26.699 1.9961-7.0117 1.3945-7.5703 2.0234-7.5117 8.3984l0.011719 1.5977c0 0.63281-0.003907 1.2539-0.011719 1.8555-0.039062 3.8516-0.066406 6.8984 1.8672 8.4062 1.0586 0.83203 2.4648 0.99609 4.2891 0.52344 11.125-2.9062 22.777-3.3438 26.793-3.4062l-0.003907 9.3203c-0.003906 0.19531 0.039063 0.39453 0.11719 0.57812 0.027344 0.058594 0.074219 0.10156 0.10547 0.15625 0.0625 0.10938 0.11719 0.22266 0.21094 0.31641 0.097656 0.097656 0.21875 0.15625 0.33203 0.22266 0.050781 0.027344 0.089843 0.070313 0.14062 0.09375 0.17969 0.078125 0.375 0.11719 0.57031 0.11719s0.38672-0.042968 0.57031-0.11719c0.15234-0.066406 0.28906-0.16406 0.41016-0.27344 0.019531-0.019532 0.046875-0.023438 0.066406-0.042969 0 0 0.003906-0.003907 0.003906-0.003907 1.1602-1.1602 2.3047-2.3164 3.4492-3.4688 5.1562-5.207 10.031-10.129 15.52-14.664 0.023438-0.019531 0.03125-0.042969 0.050782-0.0625 0.015624-0.015625 0.039062-0.019531 0.050781-0.035156 0.050781-0.050782 0.070312-0.11328 0.10938-0.16406 0.066406-0.089843 0.13672-0.17188 0.17969-0.27344 0.035157-0.078125 0.050781-0.16016 0.070313-0.24219 0.027344-0.10156 0.054687-0.19531 0.058594-0.30078-0.003907-0.085937-0.023438-0.17188-0.03125-0.25781zm-18.113 13.922c-0.30469 0.30859-0.61328 0.61719-0.91797 0.92187l0.003906-7.2305c0-0.80859-0.64844-1.4648-1.457-1.4766-0.59766 0.003907-14.98-0.16016-29.031 3.5117-0.83984 0.21875-1.4531 0.21875-1.7266 0.011719-0.78516-0.61328-0.75391-3.5-0.73047-6.0508 0.007813-0.61328 0.011719-1.2422 0.011719-1.8906l-0.011719-1.6172c-0.019531-2.1953-0.035156-3.6484 0.37109-4.0938 0.48047-0.53125 2.3711-0.90625 4.7656-1.3828 9.332-1.8594 15.535-1.9414 27.57-1.9414 0.20313 0 0.39453-0.042968 0.57031-0.11328 0.054687-0.023437 0.09375-0.066406 0.14453-0.09375 0.11328-0.066406 0.23047-0.125 0.32422-0.21875 0.046875-0.046875 0.070313-0.10938 0.10938-0.16016 0.074219-0.097657 0.15625-0.1875 0.20312-0.30469 0.03125-0.070312 0.03125-0.14844 0.050781-0.21875 0.027344-0.10938 0.070313-0.21094 0.074219-0.32812 0.039063-1.6172 0.039063-1.6172 0.03125-2.3516-0.007813-0.45703-0.015625-1.2148-0.023437-2.8516 2.2891 2.3711 5.0117 5.0469 8.0508 8.0312 1.9062 1.8711 3.9727 3.9102 6.1289 6.0547-5.0977 4.3242-9.6953 8.9258-14.512 13.793z" fill="#fff"/>
</svg>
